<svg width="16" height="16" viewBox="0 0 16 16" fill="none" xmlns="http://www.w3.org/2000/svg">
<path d="M1.02987 1.02344C0.658772 1.10156 0.473225 1.32617 0.473225 1.69727C0.473225 5.44727 1.80135 8.65039 4.4576 11.3066C7.11385 13.9629 10.317 15.291 14.067 15.291C14.4381 15.291 14.6627 15.1055 14.7408 14.7344L15.4439 11.6875C15.5416 11.3164 15.4049 11.0527 15.0338 10.8965L11.7525 9.49023C11.44 9.35352 11.1666 9.42188 10.9322 9.69531L9.49666 11.4531C8.34432 10.9258 7.32869 10.2129 6.44979 9.31445C5.55135 8.41602 4.83846 7.40039 4.31112 6.26758L6.06893 4.80273C6.34237 4.58789 6.41072 4.31445 6.27401 3.98242L4.86776 0.701172C4.71151 0.349609 4.44783 0.222656 4.07674 0.320312L1.02987 1.02344Z" fill="#1B1B1B"/>
</svg>
