<svg width="16" height="12" viewBox="0 0 16 12" fill="none" xmlns="http://www.w3.org/2000/svg">
<path d="M15.264 3.88672C15.3226 3.82812 15.3812 3.81836 15.4398 3.85742C15.5179 3.89648 15.557 3.95508 15.557 4.0332V10.0098C15.557 10.4004 15.4203 10.7324 15.1469 11.0059C14.8734 11.2793 14.5414 11.416 14.1508 11.416H1.96326C1.57264 11.416 1.2406 11.2793 0.967167 11.0059C0.693729 10.7324 0.557011 10.4004 0.557011 10.0098V4.0332C0.557011 3.95508 0.586308 3.90625 0.644901 3.88672C0.723026 3.84766 0.791386 3.84766 0.849979 3.88672C1.49451 4.375 2.99842 5.47852 5.3617 7.19727C5.40076 7.23633 5.52771 7.34375 5.74256 7.51953C5.97693 7.69531 6.16248 7.83203 6.2992 7.92969C6.43592 8.00781 6.6117 8.11523 6.82654 8.25195C7.04139 8.36914 7.24646 8.45703 7.44178 8.51562C7.65662 8.57422 7.8617 8.60352 8.05701 8.60352C8.25232 8.60352 8.44764 8.57422 8.64295 8.51562C8.85779 8.45703 9.07264 8.36914 9.28748 8.25195C9.52185 8.11523 9.7074 7.99805 9.84412 7.90039C9.98084 7.80273 10.1566 7.67578 10.3715 7.51953C10.5863 7.34375 10.7133 7.23633 10.7523 7.19727C13.057 5.53711 14.5609 4.43359 15.264 3.88672ZM8.05701 7.66602C7.90076 7.66602 7.70545 7.61719 7.47107 7.51953C7.25623 7.40234 7.08045 7.30469 6.94373 7.22656C6.80701 7.12891 6.60193 6.98242 6.3285 6.78711C6.07459 6.57227 5.93787 6.46484 5.91834 6.46484C3.53553 4.72656 1.83631 3.4668 0.820683 2.68555C0.644901 2.54883 0.557011 2.36328 0.557011 2.12891V1.57227C0.557011 1.18164 0.693729 0.849609 0.967167 0.576172C1.2406 0.302734 1.57264 0.166016 1.96326 0.166016H14.1508C14.5414 0.166016 14.8734 0.302734 15.1469 0.576172C15.4203 0.849609 15.557 1.18164 15.557 1.57227V2.12891C15.557 2.36328 15.4691 2.54883 15.2933 2.68555C14.3363 3.42773 12.6371 4.6875 10.1957 6.46484C10.1762 6.46484 10.0297 6.57227 9.75623 6.78711C9.50232 6.98242 9.30701 7.12891 9.17029 7.22656C9.03357 7.30469 8.84803 7.40234 8.61365 7.51953C8.39881 7.61719 8.21326 7.66602 8.05701 7.66602Z" fill="#1B1B1B"/>
</svg>
