<svg width="25" height="24" viewBox="0 0 25 24" fill="none" xmlns="http://www.w3.org/2000/svg">
<path d="M9.46521 14.25C9.46521 16.17 11.0452 17.75 12.9652 17.75C14.8852 17.75 16.4652 16.17 16.4652 14.25" stroke="#292D32" stroke-width="1.5" stroke-miterlimit="10" stroke-linecap="round" stroke-linejoin="round"/>
<path d="M9.77521 2L6.15521 5.63" stroke="#292D32" stroke-width="1.5" stroke-miterlimit="10" stroke-linecap="round" stroke-linejoin="round"/>
<path d="M16.1552 2L19.7752 5.63" stroke="#292D32" stroke-width="1.5" stroke-miterlimit="10" stroke-linecap="round" stroke-linejoin="round"/>
<path d="M2.96521 7.8501C2.96521 6.0001 3.95521 5.8501 5.18521 5.8501H20.7452C21.9752 5.8501 22.9652 6.0001 22.9652 7.8501C22.9652 10.0001 21.9752 9.8501 20.7452 9.8501H5.18521C3.95521 9.8501 2.96521 10.0001 2.96521 7.8501Z" stroke="#292D32" stroke-width="1.5"/>
<path d="M4.46521 10L5.87521 18.64C6.19521 20.58 6.96521 22 9.82521 22H15.8552C18.9652 22 19.4252 20.64 19.7852 18.76L21.4652 10" stroke="#292D32" stroke-width="1.5" stroke-linecap="round"/>
</svg>
