<svg width="37" height="19" viewBox="0 0 37 19" fill="none" xmlns="http://www.w3.org/2000/svg">
<path fill-rule="evenodd" clip-rule="evenodd" d="M8.02368 0.192871C3.88155 0.192871 0.523682 3.55074 0.523682 7.69287C0.523682 11.835 3.88155 15.1929 8.02369 15.1929H26.3155C26.3057 16.1413 26.1144 17.1972 25.5435 18.4266C27.3047 18.9353 29.6619 16.6989 31.1381 14.8852C34.2411 13.9663 36.5049 11.0939 36.5049 7.69287C36.5049 3.55074 33.1471 0.192871 29.0049 0.192871H8.02368Z" fill="#FF7D1E"/>
<path d="M14.1295 11.1929C13.9829 10.9462 13.8129 10.6695 13.6195 10.3629C13.4329 10.0562 13.2295 9.73954 13.0095 9.41287C12.7895 9.07954 12.5595 8.74287 12.3195 8.40287C12.0862 8.06287 11.8529 7.7362 11.6195 7.42287C11.3862 7.10287 11.1595 6.80287 10.9395 6.52287C10.7195 6.24287 10.5162 5.9962 10.3295 5.78287V11.1929H9.37953V4.26287H10.1495C10.4629 4.5962 10.7962 4.9862 11.1495 5.43287C11.5095 5.87287 11.8629 6.32954 12.2095 6.80287C12.5629 7.26954 12.8929 7.72954 13.1995 8.18287C13.5129 8.6362 13.7762 9.03954 13.9895 9.39287V4.26287H14.9395V11.1929H14.1295ZM16.3049 8.60287C16.3049 8.14287 16.3716 7.74287 16.5049 7.40287C16.6383 7.0562 16.8149 6.76954 17.0349 6.54287C17.2549 6.3162 17.5083 6.1462 17.7949 6.03287C18.0816 5.91954 18.3749 5.86287 18.6749 5.86287C19.3749 5.86287 19.9116 6.08287 20.2849 6.52287C20.6583 6.9562 20.8449 7.61954 20.8449 8.51287C20.8449 8.55287 20.8449 8.6062 20.8449 8.67287C20.8449 8.73287 20.8416 8.78954 20.8349 8.84287H17.2749C17.3149 9.38287 17.4716 9.79287 17.7449 10.0729C18.0183 10.3529 18.4449 10.4929 19.0249 10.4929C19.3516 10.4929 19.6249 10.4662 19.8449 10.4129C20.0716 10.3529 20.2416 10.2962 20.3549 10.2429L20.4849 11.0229C20.3716 11.0829 20.1716 11.1462 19.8849 11.2129C19.6049 11.2795 19.2849 11.3129 18.9249 11.3129C18.4716 11.3129 18.0783 11.2462 17.7449 11.1129C17.4183 10.9729 17.1483 10.7829 16.9349 10.5429C16.7216 10.3029 16.5616 10.0195 16.4549 9.69287C16.3549 9.35954 16.3049 8.9962 16.3049 8.60287ZM19.8749 8.09287C19.8816 7.67287 19.7749 7.32954 19.5549 7.06287C19.3416 6.78954 19.0449 6.65287 18.6649 6.65287C18.4516 6.65287 18.2616 6.6962 18.0949 6.78287C17.9349 6.86287 17.7983 6.96954 17.6849 7.10287C17.5716 7.2362 17.4816 7.38954 17.4149 7.56287C17.3549 7.7362 17.3149 7.91287 17.2949 8.09287H19.8749ZM26.4309 11.1929C26.2442 10.7129 26.0442 10.1662 25.8309 9.55287C25.6242 8.93287 25.4342 8.28954 25.2609 7.62287C25.0875 8.28954 24.8975 8.93287 24.6909 9.55287C24.4842 10.1662 24.2875 10.7129 24.1009 11.1929H23.2909C22.9842 10.5062 22.6842 9.72287 22.3909 8.84287C22.0975 7.96287 21.8209 7.01287 21.5609 5.99287H22.5609C22.6275 6.3062 22.7075 6.6462 22.8009 7.01287C22.8942 7.37954 22.9909 7.7462 23.0909 8.11287C23.1975 8.47954 23.3075 8.83287 23.4209 9.17287C23.5342 9.51287 23.6409 9.80954 23.7409 10.0629C23.8542 9.74954 23.9642 9.41954 24.0709 9.07287C24.1842 8.71954 24.2909 8.3662 24.3909 8.01287C24.4909 7.65287 24.5842 7.30287 24.6709 6.96287C24.7642 6.6162 24.8442 6.29287 24.9109 5.99287H25.6809C25.7409 6.29287 25.8142 6.6162 25.9009 6.96287C25.9875 7.30287 26.0809 7.65287 26.1809 8.01287C26.2809 8.3662 26.3842 8.71954 26.4909 9.07287C26.6042 9.41954 26.7175 9.74954 26.8309 10.0629C26.9309 9.80954 27.0342 9.51287 27.1409 9.17287C27.2542 8.83287 27.3642 8.47954 27.4709 8.11287C27.5775 7.7462 27.6775 7.37954 27.7709 7.01287C27.8642 6.6462 27.9442 6.3062 28.0109 5.99287H28.9709C28.7109 7.01287 28.4342 7.96287 28.1409 8.84287C27.8475 9.72287 27.5475 10.5062 27.2409 11.1929H26.4309Z" fill="white"/>
</svg>
